<svg width="23" height="23" viewBox="0 0 23 23" fill="none" xmlns="http://www.w3.org/2000/svg">
<path d="M20.0752 15.0136L20.0763 15.0108C20.1025 14.9478 20.1409 14.8907 20.1892 14.8426C20.2376 14.7945 20.295 14.7565 20.3581 14.7307C20.4212 14.7049 20.4888 14.6918 20.5569 14.6922C20.6251 14.6926 20.6925 14.7065 20.7553 14.7331C20.8181 14.7597 20.875 14.7985 20.9228 14.8471C20.9705 14.8958 21.0082 14.9534 21.0336 15.0167C21.0589 15.08 21.0716 15.1476 21.0707 15.2158C21.0698 15.284 21.0555 15.3513 21.0285 15.4139L21.0267 15.4181C20.1207 17.5734 18.532 19.3714 16.5047 20.5358C14.4774 21.7002 12.1227 22.1665 9.80454 21.8631C7.48649 21.5562 5.33255 20.4992 3.67159 18.8534C2.01047 17.2074 0.93374 15.0629 0.605829 12.7475C0.277918 10.4321 0.716851 8.07299 1.8556 6.03046C2.99261 3.99105 4.76489 2.37918 6.90249 1.44015C7.02568 1.39366 7.16206 1.39571 7.28394 1.44607C7.40824 1.49744 7.50773 1.59503 7.56147 1.71829C7.61522 1.84156 7.61902 1.98088 7.57207 2.10691C7.52599 2.23058 7.43457 2.33197 7.31655 2.39057C5.87223 3.01969 4.60356 3.99242 3.62113 5.22411C2.63644 6.45862 1.96931 7.91564 1.67811 9.46767C1.3869 11.0197 1.4805 12.6195 1.95071 14.1269C2.42092 15.6344 3.25341 17.0037 4.37534 18.115C5.49727 19.2262 6.87445 20.0456 8.38636 20.5014C9.89826 20.9571 11.4988 21.0355 13.048 20.7294C14.5972 20.4234 16.0478 19.7424 17.2728 18.746C18.4979 17.7495 19.46 16.468 20.0752 15.0136ZM10.6706 11.2534V11.2529V1.06586V1.06536C10.6706 0.997347 10.6839 0.929975 10.7099 0.867096C10.7358 0.804226 10.7739 0.74709 10.822 0.69894C10.8701 0.650779 10.9271 0.612564 10.9899 0.586477C11.0526 0.560468 11.1197 0.547006 11.1876 0.546875C14.0237 0.550851 16.7422 1.6806 18.7458 3.68791C20.7495 5.69538 21.8742 8.41627 21.8726 11.2526V11.2534C21.8727 11.3213 21.8594 11.3886 21.8334 11.4514C21.8075 11.5141 21.7694 11.5712 21.7214 11.6192C21.6733 11.6673 21.6163 11.7055 21.5536 11.7315C21.4908 11.7575 21.4236 11.7709 21.3556 11.7709H11.1876C11.1197 11.7709 11.0524 11.7575 10.9897 11.7315C10.927 11.7055 10.8699 11.6673 10.8219 11.6192C10.7739 11.5712 10.7358 11.5141 10.7099 11.4514C10.6839 11.3886 10.6706 11.3213 10.6706 11.2534ZM11.7046 10.2339V10.7339H12.2046H20.2826H20.8411L20.7796 10.1788C20.5381 8.00086 19.5634 5.96978 18.0154 4.4189C16.4674 2.86802 14.4381 1.88951 12.2607 1.64402L11.7046 1.58133V2.14087V10.2339Z" fill="#B9B9B9" stroke="white"/>
</svg>
