<svg width="26" height="26" viewBox="0 0 26 26" fill="none" xmlns="http://www.w3.org/2000/svg">
<path d="M13 25C19.6274 25 25 19.6274 25 13C25 6.37258 19.6274 1 13 1C6.37258 1 1 6.37258 1 13C1 19.6274 6.37258 25 13 25Z" fill="#FFE7E5"/>
<path d="M13.0052 24.3366C19.2644 24.3366 24.3385 19.2625 24.3385 13.0033C24.3385 6.74403 19.2644 1.66992 13.0052 1.66992C6.74598 1.66992 1.67188 6.74403 1.67188 13.0033C1.67188 19.2625 6.74598 24.3366 13.0052 24.3366Z" stroke="white" stroke-width="2"/>
<path d="M7.57399 18.2422C7.45602 18.1201 7.36328 17.9759 7.30108 17.8178C7.23889 17.6598 7.20845 17.4911 7.21151 17.3213C7.21458 17.1515 7.25108 16.984 7.31894 16.8283C7.3868 16.6727 7.48468 16.5319 7.60699 16.4141L11.0916 13.0483L7.60416 9.56082C7.36162 9.31828 7.22535 8.98931 7.22535 8.6463C7.22535 8.30329 7.36162 7.97432 7.60416 7.73177C7.84671 7.48923 8.17567 7.35297 8.51869 7.35297C8.8617 7.35297 9.19067 7.48923 9.43321 7.73177L12.9508 11.2494L16.5957 7.72895C16.8425 7.49065 17.1739 7.36015 17.5169 7.36617C17.8599 7.37218 18.1865 7.5142 18.4248 7.761C18.6631 8.0078 18.7936 8.33915 18.7876 8.68216C18.7816 9.02518 18.6395 9.35175 18.3927 9.59005L14.7808 13.0813L18.2692 16.5697C18.5118 16.8122 18.648 17.1412 18.648 17.4842C18.648 17.8272 18.5118 18.1562 18.2692 18.3987C18.0267 18.6413 17.6977 18.7775 17.3547 18.7775C17.0117 18.7775 16.6827 18.6413 16.4402 18.3987L12.9197 14.8783L9.4021 18.2752C9.15806 18.5104 8.83147 18.6403 8.49259 18.6371C8.15371 18.634 7.82961 18.4979 7.59002 18.2582L7.57399 18.2422Z" fill="#FF5D4D" stroke="#FFE7E5" stroke-width="0.5"/>
</svg>
