<svg width="24" height="25" viewBox="0 0 24 25" fill="none" xmlns="http://www.w3.org/2000/svg">
<path d="M16.7004 19.8672H7.30042C6.92305 19.8555 6.55732 19.7339 6.24818 19.5171C5.93905 19.3004 5.7 18.998 5.56042 18.6472L1.42042 7.05719C0.910423 5.59719 1.28042 4.92719 1.68042 4.62719C2.08042 4.32719 2.83042 4.14719 4.09042 5.04719L7.99042 7.83719C8.08042 7.90104 8.19077 7.92952 8.30042 7.91719C8.35248 7.89475 8.39857 7.86046 8.43503 7.81705C8.47148 7.77365 8.4973 7.72233 8.51042 7.66719L10.2714 2.97719C10.8004 1.57719 11.5804 1.36719 12.0004 1.36719C12.4204 1.36719 13.2004 1.57719 13.7304 2.97719L15.4904 7.66719C15.5051 7.72164 15.5315 7.77223 15.5678 7.81542C15.604 7.8586 15.6493 7.89334 15.7004 7.91719C15.7555 7.9297 15.8128 7.92801 15.8671 7.91226C15.9213 7.89652 15.9706 7.86724 16.0104 7.82719L19.6714 5.21719C21.0114 4.25719 21.7914 4.44719 22.2214 4.75719C22.6514 5.06719 23.0314 5.78719 22.4814 7.33719L18.4414 18.6472C18.3018 18.9981 18.0626 19.3006 17.7532 19.5174C17.4439 19.7341 17.078 19.8557 16.7004 19.8672ZM2.68042 5.94719C2.71055 6.15267 2.76423 6.35399 2.84042 6.54719L6.98042 18.1372C7.01378 18.1965 7.0597 18.2479 7.11497 18.2876C7.17025 18.3273 7.23355 18.3545 7.30042 18.3672H16.7004C16.7683 18.3572 16.8327 18.3311 16.8884 18.2911C16.9441 18.2511 16.9893 18.1983 17.0204 18.1372L21.0604 6.83719C21.1608 6.58416 21.2248 6.31818 21.2504 6.04719C20.9951 6.14427 20.7558 6.27911 20.5404 6.44719L16.8804 9.05719C16.6541 9.23306 16.3888 9.35206 16.1069 9.4042C15.825 9.45634 15.5347 9.44009 15.2604 9.35682C14.9861 9.27355 14.7358 9.12568 14.5305 8.92564C14.3252 8.72561 14.1708 8.47922 14.0804 8.20719L12.3204 3.51719C12.2504 3.29971 12.142 3.09651 12.0004 2.91719C11.8605 3.09388 11.7522 3.2935 11.6804 3.50719L9.92042 8.19719C9.8277 8.46798 9.67258 8.71316 9.46759 8.91294C9.26261 9.11271 9.01351 9.26146 8.74042 9.34719C8.46539 9.42398 8.17644 9.43687 7.89567 9.38488C7.61489 9.33288 7.34972 9.21737 7.12042 9.04719L3.22042 6.25719C3.05269 6.13382 2.87154 6.02982 2.68042 5.94719Z" fill="white"/>
<path d="M17.5 22.8867H6.5C6.30149 22.8854 6.11149 22.806 5.97112 22.6656C5.83075 22.5252 5.75131 22.3352 5.75 22.1367C5.75131 21.9382 5.83075 21.7482 5.97112 21.6078C6.11149 21.4675 6.30149 21.388 6.5 21.3867H17.5C17.6985 21.388 17.8885 21.4675 18.0289 21.6078C18.1693 21.7482 18.2487 21.9382 18.25 22.1367C18.2487 22.3352 18.1693 22.5252 18.0289 22.6656C17.8885 22.806 17.6985 22.8854 17.5 22.8867Z" fill="white"/>
<path d="M14.5 14.8867H9.5C9.30149 14.8854 9.11149 14.806 8.97112 14.6656C8.83075 14.5252 8.75131 14.3352 8.75 14.1367C8.75131 13.9382 8.83075 13.7482 8.97112 13.6078C9.11149 13.4675 9.30149 13.388 9.5 13.3867H14.5C14.6985 13.388 14.8885 13.4675 15.0289 13.6078C15.1693 13.7482 15.2487 13.9382 15.25 14.1367C15.2487 14.3352 15.1693 14.5252 15.0289 14.6656C14.8885 14.806 14.6985 14.8854 14.5 14.8867Z" fill="white"/>
</svg>
