<svg width="41" height="48" viewBox="0 0 41 48" fill="none" xmlns="http://www.w3.org/2000/svg">
<path fill-rule="evenodd" clip-rule="evenodd" d="M33.1061 10.7988V36.3008H30.6392V17.5869L22.2361 27.5572L11.8907 17.3602V35.495H9.42383V11.4283L22.0701 23.8932L33.1061 10.7988Z" fill="#8CC9E9"/>
<path fill-rule="evenodd" clip-rule="evenodd" d="M0.0488281 0.976562L38.5326 41.2643V9.10726H40.9995V47.4538L2.51574 7.16602V35.4958H0.0488281V0.976562Z" fill="#8CC9E9"/>
<path d="M40.9507 47.4303H0V38.8691H36.0168L40.9507 47.4303Z" fill="#8CC9E9"/>
<path d="M1.70312 39.7285H2.67266L5.7339 44.7397V39.7285H6.51366V45.9146H5.59363L2.487 40.9076V45.9146H1.70312V39.7285Z" fill="#333333"/>
<path d="M7.8875 39.7285H12.3061V40.4865H8.68788V42.3647H12.0338V43.0805H8.68788V45.1777H12.368V45.9146H7.8875V39.7285Z" fill="#333333"/>
<path d="M17.8551 39.7285V40.4655H15.8129V45.9146H14.9795V40.4655H12.9373V39.7285H17.8551Z" fill="#333333"/>
<path d="M18.5895 39.7285H19.7653L21.5063 44.9587L23.235 39.7285H24.3984V45.9146H23.6187V42.2636C23.6187 42.1373 23.6214 41.9281 23.6269 41.6361C23.6324 41.3442 23.6352 41.0311 23.6352 40.6971L21.9065 45.9146H21.0938L19.3527 40.6971V40.8866C19.3527 41.0382 19.3555 41.2698 19.361 41.5814C19.3692 41.8902 19.3734 42.1176 19.3734 42.2636V45.9146H18.5895V39.7285Z" fill="#333333"/>
<path d="M25.7269 39.7285H30.1455V40.4865H26.5273V42.3647H29.8732V43.0805H26.5273V45.1777H30.2074V45.9146H25.7269V39.7285Z" fill="#333333"/>
</svg>
