<svg width="21" height="29" viewBox="0 0 21 29" fill="none" xmlns="http://www.w3.org/2000/svg">
<mask id="path-1-inside-1_1770_10502" fill="white">
<path d="M13.0096 28.013H12.9396H7.00959C5.818 28.0411 4.62575 28.0077 3.43759 27.9131C2.99782 27.9252 2.56019 27.8475 2.15143 27.6848C1.74268 27.5222 1.37138 27.2778 1.0602 26.9668C0.749021 26.6558 0.504501 26.2847 0.341575 25.8761C0.178648 25.4674 0.100735 25.0298 0.11259 24.5901C0.0162878 23.4003 -0.0180926 22.2063 0.0095891 21.013V7.01303C-0.0184247 5.82144 0.0149514 4.62917 0.109588 3.44101C0.0971844 3.00125 0.174609 2.56357 0.337127 2.15476C0.499644 1.74594 0.74384 1.37461 1.05478 1.06339C1.36572 0.752164 1.73687 0.507644 2.14555 0.344758C2.55422 0.181872 2.99182 0.104053 3.43159 0.116059C4.62167 0.0197766 5.81594 -0.0146304 7.00959 0.0130319H12.8496C12.8972 0.00506222 12.9453 0.000715925 12.9936 3.14417e-05C13.0641 -0.00052069 13.1345 0.00620078 13.2036 0.020051C13.9747 -0.0458609 14.7503 0.0766507 15.4636 0.377046C16.3123 0.89712 17.0731 1.54854 17.7176 2.30704C18.4774 2.95281 19.1293 3.71575 19.6486 4.56705C19.9478 5.27855 20.0699 6.05195 20.0046 6.82102C20.0286 6.94031 20.0306 7.06299 20.0106 7.18301V21.013C20.0388 22.2053 20.0054 23.3982 19.9106 24.587C19.9224 25.0268 19.8445 25.4644 19.6816 25.8731C19.5187 26.2817 19.2742 26.6528 18.963 26.9638C18.6518 27.2748 18.2805 27.5191 17.8717 27.6818C17.463 27.8445 17.0254 27.9221 16.5856 27.91C15.4464 28.0027 14.3032 28.0361 13.1606 28.01L13.0096 28.013ZM3.65759 2.10001C3.44426 2.06192 3.2249 2.07602 3.01818 2.14102C2.81146 2.20603 2.62353 2.32003 2.4704 2.47336C2.31727 2.62668 2.20349 2.81478 2.13875 3.02158C2.07401 3.22838 2.06023 3.44777 2.09859 3.66104C2.01559 4.41304 2.00959 5.51303 2.00959 7.01303V21.013C2.00959 22.513 2.01559 23.618 2.09959 24.365C2.06144 24.5783 2.07547 24.7977 2.14048 25.0044C2.20548 25.2111 2.31953 25.399 2.47288 25.552C2.62624 25.7051 2.81436 25.8188 3.02117 25.8834C3.22799 25.948 3.44737 25.9616 3.66059 25.923C4.40659 26.007 5.51559 26.013 7.01059 26.013H13.0106H13.0806C14.5346 26.013 15.6276 26.005 16.3596 25.923C16.5728 25.9611 16.7921 25.9472 16.9988 25.8824C17.2055 25.8175 17.3935 25.7038 17.5467 25.5507C17.7 25.3976 17.814 25.2098 17.8791 25.0032C17.9442 24.7966 17.9584 24.5773 17.9206 24.364C18.0056 23.618 18.0106 22.5091 18.0106 21.0121V8.01303H13.0096C12.7444 8.01303 12.49 7.90766 12.3025 7.72012C12.1149 7.53259 12.0096 7.27825 12.0096 7.01303V2.01303H7.00959C5.50959 2.01303 4.40359 2.01902 3.65759 2.10202V2.10001ZM14.0096 6.01303H17.9856C17.9802 5.82212 17.937 5.63418 17.8586 5.46005C17.4084 4.82163 16.886 4.23739 16.3016 3.71903C15.7841 3.1359 15.2017 2.61388 14.5656 2.16306C14.3905 2.08438 14.2015 2.0412 14.0096 2.03604V6.01303ZM15.0096 23.013H4.98159C4.85027 23.0112 4.72059 22.9835 4.59997 22.9315C4.47935 22.8796 4.37014 22.8044 4.27858 22.7102C4.18702 22.6161 4.11491 22.5048 4.06635 22.3828C4.0178 22.2608 3.99375 22.1304 3.99559 21.9991C3.99743 21.8677 4.02511 21.738 4.07707 21.6174C4.12902 21.4968 4.20422 21.3876 4.29838 21.2961C4.39254 21.2045 4.50381 21.1323 4.62584 21.0838C4.74787 21.0352 4.87827 21.0112 5.00959 21.013H15.0386C15.1699 21.014 15.2998 21.0407 15.4207 21.0918C15.5417 21.1429 15.6514 21.2174 15.7436 21.3109C15.8359 21.4044 15.9087 21.5151 15.9581 21.6368C16.0075 21.7585 16.0325 21.8887 16.0316 22.0201C16.0307 22.1514 16.0039 22.2812 15.9528 22.4022C15.9017 22.5232 15.8273 22.6329 15.7337 22.7251C15.6402 22.8173 15.5295 22.8902 15.4078 22.9396C15.2861 22.989 15.1559 23.014 15.0246 23.013H15.0096ZM4.98159 19.013C4.85027 19.0112 4.72059 18.9835 4.59997 18.9315C4.47935 18.8796 4.37014 18.8044 4.27858 18.7102C4.18702 18.6161 4.11491 18.5048 4.06635 18.3828C4.0178 18.2608 3.99375 18.1304 3.99559 17.9991C3.99743 17.8677 4.02511 17.738 4.07707 17.6174C4.12902 17.4968 4.20422 17.3876 4.29838 17.2961C4.39254 17.2045 4.50381 17.1323 4.62584 17.0838C4.74787 17.0352 4.87827 17.0112 5.00959 17.013H15.0386C15.3038 17.0169 15.5566 17.1259 15.7414 17.3162C15.9263 17.5064 16.0279 17.7623 16.0241 18.0276C16.0202 18.2928 15.9112 18.5456 15.7209 18.7304C15.5307 18.9152 15.2748 19.0169 15.0096 19.013H4.98159ZM15.0096 15.013H4.98159C4.85027 15.0112 4.72059 14.9835 4.59997 14.9316C4.47935 14.8796 4.37014 14.8044 4.27858 14.7102C4.18702 14.6161 4.11491 14.5048 4.06635 14.3828C4.0178 14.2608 3.99375 14.1304 3.99559 13.9991C3.99743 13.8677 4.02511 13.738 4.07707 13.6174C4.12902 13.4968 4.20422 13.3876 4.29838 13.2961C4.39254 13.2045 4.50381 13.1323 4.62584 13.0838C4.74787 13.0352 4.87827 13.0112 5.00959 13.013H15.0386C15.1699 13.014 15.2998 13.0407 15.4207 13.0918C15.5417 13.1429 15.6514 13.2174 15.7436 13.3109C15.8359 13.4044 15.9087 13.5151 15.9581 13.6368C16.0075 13.7585 16.0325 13.8887 16.0316 14.0201C16.0307 14.1514 16.0039 14.2812 15.9528 14.4022C15.9017 14.5232 15.8273 14.6329 15.7337 14.7251C15.6402 14.8173 15.5295 14.8902 15.4078 14.9396C15.2861 14.989 15.1559 15.014 15.0246 15.013H15.0096Z"/>
</mask>
<path d="M13.0096 28.013H12.9396H7.00959C5.818 28.0411 4.62575 28.0077 3.43759 27.9131C2.99782 27.9252 2.56019 27.8475 2.15143 27.6848C1.74268 27.5222 1.37138 27.2778 1.0602 26.9668C0.749021 26.6558 0.504501 26.2847 0.341575 25.8761C0.178648 25.4674 0.100735 25.0298 0.11259 24.5901C0.0162878 23.4003 -0.0180926 22.2063 0.0095891 21.013V7.01303C-0.0184247 5.82144 0.0149514 4.62917 0.109588 3.44101C0.0971844 3.00125 0.174609 2.56357 0.337127 2.15476C0.499644 1.74594 0.74384 1.37461 1.05478 1.06339C1.36572 0.752164 1.73687 0.507644 2.14555 0.344758C2.55422 0.181872 2.99182 0.104053 3.43159 0.116059C4.62167 0.0197766 5.81594 -0.0146304 7.00959 0.0130319H12.8496C12.8972 0.00506222 12.9453 0.000715925 12.9936 3.14417e-05C13.0641 -0.00052069 13.1345 0.00620078 13.2036 0.020051C13.9747 -0.0458609 14.7503 0.0766507 15.4636 0.377046C16.3123 0.89712 17.0731 1.54854 17.7176 2.30704C18.4774 2.95281 19.1293 3.71575 19.6486 4.56705C19.9478 5.27855 20.0699 6.05195 20.0046 6.82102C20.0286 6.94031 20.0306 7.06299 20.0106 7.18301V21.013C20.0388 22.2053 20.0054 23.3982 19.9106 24.587C19.9224 25.0268 19.8445 25.4644 19.6816 25.8731C19.5187 26.2817 19.2742 26.6528 18.963 26.9638C18.6518 27.2748 18.2805 27.5191 17.8717 27.6818C17.463 27.8445 17.0254 27.9221 16.5856 27.91C15.4464 28.0027 14.3032 28.0361 13.1606 28.01L13.0096 28.013ZM3.65759 2.10001C3.44426 2.06192 3.2249 2.07602 3.01818 2.14102C2.81146 2.20603 2.62353 2.32003 2.4704 2.47336C2.31727 2.62668 2.20349 2.81478 2.13875 3.02158C2.07401 3.22838 2.06023 3.44777 2.09859 3.66104C2.01559 4.41304 2.00959 5.51303 2.00959 7.01303V21.013C2.00959 22.513 2.01559 23.618 2.09959 24.365C2.06144 24.5783 2.07547 24.7977 2.14048 25.0044C2.20548 25.2111 2.31953 25.399 2.47288 25.552C2.62624 25.7051 2.81436 25.8188 3.02117 25.8834C3.22799 25.948 3.44737 25.9616 3.66059 25.923C4.40659 26.007 5.51559 26.013 7.01059 26.013H13.0106H13.0806C14.5346 26.013 15.6276 26.005 16.3596 25.923C16.5728 25.9611 16.7921 25.9472 16.9988 25.8824C17.2055 25.8175 17.3935 25.7038 17.5467 25.5507C17.7 25.3976 17.814 25.2098 17.8791 25.0032C17.9442 24.7966 17.9584 24.5773 17.9206 24.364C18.0056 23.618 18.0106 22.5091 18.0106 21.0121V8.01303H13.0096C12.7444 8.01303 12.49 7.90766 12.3025 7.72012C12.1149 7.53259 12.0096 7.27825 12.0096 7.01303V2.01303H7.00959C5.50959 2.01303 4.40359 2.01902 3.65759 2.10202V2.10001ZM14.0096 6.01303H17.9856C17.9802 5.82212 17.937 5.63418 17.8586 5.46005C17.4084 4.82163 16.886 4.23739 16.3016 3.71903C15.7841 3.1359 15.2017 2.61388 14.5656 2.16306C14.3905 2.08438 14.2015 2.0412 14.0096 2.03604V6.01303ZM15.0096 23.013H4.98159C4.85027 23.0112 4.72059 22.9835 4.59997 22.9315C4.47935 22.8796 4.37014 22.8044 4.27858 22.7102C4.18702 22.6161 4.11491 22.5048 4.06635 22.3828C4.0178 22.2608 3.99375 22.1304 3.99559 21.9991C3.99743 21.8677 4.02511 21.738 4.07707 21.6174C4.12902 21.4968 4.20422 21.3876 4.29838 21.2961C4.39254 21.2045 4.50381 21.1323 4.62584 21.0838C4.74787 21.0352 4.87827 21.0112 5.00959 21.013H15.0386C15.1699 21.014 15.2998 21.0407 15.4207 21.0918C15.5417 21.1429 15.6514 21.2174 15.7436 21.3109C15.8359 21.4044 15.9087 21.5151 15.9581 21.6368C16.0075 21.7585 16.0325 21.8887 16.0316 22.0201C16.0307 22.1514 16.0039 22.2812 15.9528 22.4022C15.9017 22.5232 15.8273 22.6329 15.7337 22.7251C15.6402 22.8173 15.5295 22.8902 15.4078 22.9396C15.2861 22.989 15.1559 23.014 15.0246 23.013H15.0096ZM4.98159 19.013C4.85027 19.0112 4.72059 18.9835 4.59997 18.9315C4.47935 18.8796 4.37014 18.8044 4.27858 18.7102C4.18702 18.6161 4.11491 18.5048 4.06635 18.3828C4.0178 18.2608 3.99375 18.1304 3.99559 17.9991C3.99743 17.8677 4.02511 17.738 4.07707 17.6174C4.12902 17.4968 4.20422 17.3876 4.29838 17.2961C4.39254 17.2045 4.50381 17.1323 4.62584 17.0838C4.74787 17.0352 4.87827 17.0112 5.00959 17.013H15.0386C15.3038 17.0169 15.5566 17.1259 15.7414 17.3162C15.9263 17.5064 16.0279 17.7623 16.0241 18.0276C16.0202 18.2928 15.9112 18.5456 15.7209 18.7304C15.5307 18.9152 15.2748 19.0169 15.0096 19.013H4.98159ZM15.0096 15.013H4.98159C4.85027 15.0112 4.72059 14.9835 4.59997 14.9316C4.47935 14.8796 4.37014 14.8044 4.27858 14.7102C4.18702 14.6161 4.11491 14.5048 4.06635 14.3828C4.0178 14.2608 3.99375 14.1304 3.99559 13.9991C3.99743 13.8677 4.02511 13.738 4.07707 13.6174C4.12902 13.4968 4.20422 13.3876 4.29838 13.2961C4.39254 13.2045 4.50381 13.1323 4.62584 13.0838C4.74787 13.0352 4.87827 13.0112 5.00959 13.013H15.0386C15.1699 13.014 15.2998 13.0407 15.4207 13.0918C15.5417 13.1429 15.6514 13.2174 15.7436 13.3109C15.8359 13.4044 15.9087 13.5151 15.9581 13.6368C16.0075 13.7585 16.0325 13.8887 16.0316 14.0201C16.0307 14.1514 16.0039 14.2812 15.9528 14.4022C15.9017 14.5232 15.8273 14.6329 15.7337 14.7251C15.6402 14.8173 15.5295 14.8902 15.4078 14.9396C15.2861 14.989 15.1559 15.014 15.0246 15.013H15.0096Z" fill="#B9B9B9" stroke="white" stroke-width="2" mask="url(#path-1-inside-1_1770_10502)"/>
</svg>
