<svg width="24" height="25" viewBox="0 0 24 25" fill="none" xmlns="http://www.w3.org/2000/svg">
<g clip-path="url(#clip0_1770_10527)">
<path d="M15 6.04688C15 2.73787 12.309 0.046875 9 0.046875C5.691 0.046875 3 2.73787 3 6.04688C3 9.35588 5.691 12.0469 9 12.0469C12.309 12.0469 15 9.35588 15 6.04688ZM9 10.0469C6.794 10.0469 5 8.25288 5 6.04688C5 3.84087 6.794 2.04688 9 2.04688C11.206 2.04688 13 3.84087 13 6.04688C13 8.25288 11.206 10.0469 9 10.0469ZM22 17.0469C22 16.4949 21.91 15.9649 21.744 15.4679L23.564 14.4189L22.566 12.6859L20.743 13.7359C20.037 12.9389 19.081 12.3679 18 12.1469V10.0459H16V12.1469C14.918 12.3679 13.963 12.9389 13.257 13.7359L11.434 12.6859L10.436 14.4189L12.256 15.4679C12.09 15.9649 12 16.4949 12 17.0469C12 17.5989 12.09 18.1289 12.256 18.6259L10.436 19.6749L11.434 21.4079L13.257 20.3579C13.963 21.1549 14.919 21.7259 16 21.9469V24.0479H18V21.9469C19.082 21.7259 20.037 21.1549 20.743 20.3579L22.566 21.4079L23.564 19.6749L21.744 18.6259C21.91 18.1289 22 17.5989 22 17.0469ZM17 20.0469C15.346 20.0469 14 18.7009 14 17.0469C14 15.3929 15.346 14.0469 17 14.0469C18.654 14.0469 20 15.3929 20 17.0469C20 18.7009 18.654 20.0469 17 20.0469ZM5 14.0469H8V16.0469H5C3.346 16.0469 2 17.3929 2 19.0469V24.0469H0V19.0469C0 16.2899 2.243 14.0469 5 14.0469Z" fill="white"/>
</g>
<defs>
<clipPath id="clip0_1770_10527">
<rect width="24" height="24" fill="white" transform="translate(0 0.046875)"/>
</clipPath>
</defs>
</svg>
