<svg width="22" height="19" viewBox="0 0 22 19" fill="none" xmlns="http://www.w3.org/2000/svg">
<path d="M11.0052 4.6888H2.33854C1.76391 4.6888 1.21281 4.91708 0.806477 5.3234C0.400148 5.72973 0.171875 6.28083 0.171875 6.85547V11.1888C0.171875 11.7634 0.400148 12.3145 0.806477 12.7209C1.21281 13.1272 1.76391 13.3555 2.33854 13.3555H3.42188V17.6888C3.42188 17.9761 3.53601 18.2517 3.73918 18.4548C3.94234 18.658 4.21789 18.7721 4.50521 18.7721H6.67188C6.95919 18.7721 7.23474 18.658 7.43791 18.4548C7.64107 18.2517 7.75521 17.9761 7.75521 17.6888V13.3555H11.0052L16.4219 17.6888V0.355469L11.0052 4.6888ZM14.2552 12.9221L12.0885 11.1888H2.33854V6.85547H12.0885L14.2552 5.12213V12.9221ZM21.2969 9.02213C21.2969 10.8746 20.2569 12.5538 18.5885 13.3555V4.6888C20.246 5.5013 21.2969 7.18047 21.2969 9.02213Z" fill="white"/>
</svg>
