<svg width="27" height="28" viewBox="0 0 27 28" fill="none" xmlns="http://www.w3.org/2000/svg">
<path d="M3.375 9.13672C3.375 8.24161 3.73058 7.38317 4.36351 6.75023C4.99645 6.1173 5.85489 5.76172 6.75 5.76172H20.25C21.1451 5.76172 22.0036 6.1173 22.6365 6.75023C23.2694 7.38317 23.625 8.24161 23.625 9.13672V18.1367C23.625 19.0318 23.2694 19.8903 22.6365 20.5232C22.0036 21.1561 21.1451 21.5117 20.25 21.5117H6.75C5.85489 21.5117 4.99645 21.1561 4.36351 20.5232C3.73058 19.8903 3.375 19.0318 3.375 18.1367V9.13672Z" stroke="white" stroke-width="2" stroke-linecap="round" stroke-linejoin="round"/>
<path d="M7.875 18.137L11.25 14.762M11.25 14.762L14.625 18.137M11.25 14.762C10.7741 12.7032 9.7065 11.3645 8.4375 11.387C7.54988 11.387 6.75 12.143 6.75 13.0745C6.75 14.006 8.11238 14.762 9 14.762H13.5C14.3876 14.762 15.75 14.006 15.75 13.0745C15.75 12.143 14.9501 11.387 14.0625 11.387C12.7935 11.3645 11.7259 12.7032 11.25 14.762Z" stroke="white" stroke-width="2" stroke-linecap="round" stroke-linejoin="round"/>
</svg>
