<svg width="23" height="24" viewBox="0 0 23 24" fill="none" xmlns="http://www.w3.org/2000/svg">
<path d="M9.73964 22.9282C7.3131 22.6071 5.05833 21.5007 3.31966 19.7779C1.58099 18.055 0.453988 15.8104 0.110769 13.3869C-0.232451 10.9634 0.226974 8.4942 1.41888 6.35632C2.61079 4.21844 4.46967 2.52942 6.71164 1.54721C6.95724 1.45028 7.23088 1.45247 7.4749 1.55331C7.71893 1.65416 7.91428 1.84577 8.0198 2.0878C8.12533 2.32983 8.13278 2.60338 8.04061 2.8508C7.94843 3.09822 7.7638 3.30023 7.52564 3.41422C6.15214 4.01065 4.94575 4.93459 4.01201 6.10522C3.07828 7.27586 2.44567 8.65748 2.16953 10.1292C1.8934 11.6009 1.98215 13.1179 2.42803 14.5474C2.87391 15.9769 3.66332 17.2753 4.7272 18.3291C5.79108 19.3828 7.09699 20.1598 8.53067 20.592C9.96435 21.0242 11.4821 21.0984 12.9511 20.8083C14.4201 20.5181 15.7957 19.8723 16.9573 18.9274C18.119 17.9825 19.0314 16.7673 19.6146 15.3882C19.6661 15.2644 19.7416 15.1519 19.8367 15.0574C19.9318 14.9628 20.0447 14.888 20.1688 14.8372C20.2929 14.7865 20.4259 14.7607 20.56 14.7616C20.6941 14.7624 20.8267 14.7898 20.9503 14.842C21.0738 14.8943 21.1857 14.9705 21.2796 15.0663C21.3736 15.162 21.4476 15.2753 21.4976 15.3998C21.5475 15.5243 21.5724 15.6574 21.5707 15.7915C21.569 15.9256 21.5407 16.0581 21.4876 16.1812C20.5392 18.4375 18.876 20.3197 16.7537 21.5387C14.6314 22.7577 12.1664 23.2459 9.73964 22.9282ZM11.1876 12.8402C11.054 12.8402 10.9217 12.8139 10.7982 12.7627C10.6748 12.7115 10.5626 12.6365 10.4682 12.542C10.3737 12.4474 10.2988 12.3352 10.2478 12.2117C10.1967 12.0882 10.1705 11.9558 10.1706 11.8222V1.63519C10.1705 1.50151 10.1967 1.3691 10.2478 1.24554C10.2988 1.12198 10.3737 1.00969 10.4681 0.91507C10.5625 0.820447 10.6747 0.745342 10.7981 0.694061C10.9216 0.642781 11.054 0.616342 11.1876 0.616211C14.1565 0.620187 17.0023 1.80275 19.0997 3.90402C21.197 6.0053 22.3742 8.85334 22.3726 11.8222C22.3728 11.9558 22.3466 12.0882 22.2955 12.2117C22.2445 12.3352 22.1696 12.4474 22.0751 12.542C21.9807 12.6365 21.8685 12.7115 21.7451 12.7627C21.6216 12.8139 21.4893 12.8402 21.3556 12.8402H11.1876ZM12.2046 10.8032H20.2826C20.0537 8.73802 19.1294 6.81207 17.6615 5.34146C16.1936 3.87085 14.2694 2.94299 12.2046 2.71021V10.8032Z" fill="white"/>
</svg>
