<svg width="20" height="20" viewBox="0 0 20 20" fill="none" xmlns="http://www.w3.org/2000/svg">
<path d="M6.26715 6.40466C6.12528 6.25723 6.04689 6.06003 6.04886 5.85543C6.05082 5.65083 6.13297 5.45516 6.27765 5.31048C6.42233 5.1658 6.61799 5.08365 6.82259 5.08169C7.02719 5.07973 7.2244 5.15811 7.37183 5.29999L9.16571 7.09144V1.62501C9.16571 1.41781 9.24802 1.21909 9.39454 1.07258C9.54105 0.926062 9.73977 0.84375 9.94697 0.84375C10.1542 0.84375 10.3529 0.926062 10.4994 1.07258C10.6459 1.21909 10.7282 1.41781 10.7282 1.62501V7.09144L12.5185 5.3012C12.6659 5.15932 12.8631 5.08094 13.0677 5.0829C13.2723 5.08486 13.468 5.16701 13.6127 5.31169C13.7573 5.45637 13.8395 5.65204 13.8415 5.85664C13.8434 6.06124 13.765 6.25844 13.6232 6.40587L11.0504 8.97738C10.7594 9.26878 10.3648 9.43298 9.95303 9.43403H9.9397C9.5279 9.43298 9.13329 9.26878 8.8423 8.97738L6.26715 6.40466ZM16.9747 10.2153H14.6321C14.2178 10.2156 13.8206 10.3803 13.5276 10.6733C13.2347 10.9663 13.0699 11.3635 13.0696 11.7778C13.0693 12.1921 12.9046 12.5894 12.6116 12.8823C12.3186 13.1753 11.9214 13.34 11.5071 13.3404H8.38444C7.97013 13.34 7.57288 13.1753 7.27992 12.8823C6.98696 12.5894 6.82223 12.1921 6.82191 11.7778C6.82159 11.3635 6.65687 10.9663 6.3639 10.6733C6.07094 10.3803 5.67369 10.2156 5.25938 10.2153H2.9168C2.2956 10.2163 1.70013 10.4635 1.26098 10.9029C0.821834 11.3423 0.574859 11.9379 0.574219 12.5591L0.574219 15.6829C0.575501 16.7182 0.987343 17.7108 1.71942 18.4428C2.45149 19.1749 3.44402 19.5868 4.47933 19.588H15.4134C16.4487 19.5868 17.4412 19.1749 18.1733 18.4428C18.9054 17.7108 19.3172 16.7182 19.3185 15.6829V12.5591C19.3179 11.9377 19.0707 11.3419 18.6313 10.9025C18.1919 10.4631 17.5961 10.2159 16.9747 10.2153Z" fill="#333333"/>
</svg>
