<svg width="19" height="20" viewBox="0 0 19 20" fill="none" xmlns="http://www.w3.org/2000/svg">
<path d="M18.7382 12.3289V15.4515C18.737 16.4865 18.3252 17.4787 17.5934 18.2106C16.8616 18.9424 15.8693 19.3541 14.8343 19.3554H3.9039C2.86892 19.3541 1.87669 18.9424 1.14484 18.2106C0.412997 17.4787 0.00128211 16.4865 0 15.4515L0 12.3289C0.000641296 11.7078 0.247654 11.1123 0.686835 10.6731C1.12602 10.234 1.72149 9.98695 2.34258 9.98631H4.68517C5.09915 9.98663 5.4961 10.1512 5.78883 10.444C6.08156 10.7367 6.24616 11.1336 6.24648 11.5476C6.2468 11.9616 6.4114 12.3586 6.70414 12.6513C6.99687 12.944 7.39381 13.1086 7.8078 13.1089H10.9304C11.3444 13.1086 11.7414 12.944 12.0341 12.6513C12.3268 12.3586 12.4914 11.9616 12.4918 11.5476C12.4921 11.1341 12.6563 10.7375 12.9486 10.4448C13.2408 10.1522 13.6371 9.98727 14.0507 9.98631H16.3932C17.0147 9.98631 17.6108 10.233 18.0505 10.6723C18.4903 11.1115 18.7376 11.7074 18.7382 12.3289ZM6.79761 4.75002L8.58786 2.95977V8.42499C8.58371 8.53009 8.60084 8.63495 8.63821 8.73328C8.67557 8.8316 8.73241 8.92137 8.80531 8.9972C8.87821 9.07303 8.96567 9.13335 9.06245 9.17456C9.15922 9.21577 9.26333 9.23701 9.36851 9.23701C9.4737 9.23701 9.5778 9.21577 9.67458 9.17456C9.77136 9.13335 9.85882 9.07303 9.93172 8.9972C10.0046 8.92137 10.0615 8.8316 10.0988 8.73328C10.1362 8.63495 10.1533 8.53009 10.1492 8.42499V2.95977L11.9406 4.75002C12.087 4.89635 12.2854 4.97855 12.4924 4.97855C12.6993 4.97855 12.8978 4.89635 13.0441 4.75002C13.1904 4.60369 13.2726 4.40523 13.2726 4.19829C13.2726 3.99135 13.1904 3.79288 13.0441 3.64656L10.4726 1.07504C10.1831 0.784162 9.79037 0.619571 9.38002 0.617188L9.36912 0.617188H9.35822C8.94903 0.619435 8.55726 0.783106 8.26808 1.07262L5.69294 3.64535C5.54661 3.79167 5.4644 3.99014 5.4644 4.19708C5.4644 4.40401 5.54661 4.60248 5.69294 4.74881C5.83926 4.89513 6.03773 4.97734 6.24467 4.97734C6.45161 4.97734 6.65007 4.89513 6.7964 4.74881L6.79761 4.75002Z" fill="#333333"/>
</svg>
