<svg width="199" height="106" viewBox="0 0 199 106" fill="none" xmlns="http://www.w3.org/2000/svg">
<path d="M61.5651 8.04156C59.3004 17.7547 49.2205 45.878 5.5837 76.6271C3.33801 78.2106 2.23734 80.9696 2.77867 83.6647C3.32013 86.3584 5.40049 88.4792 8.08238 89.0732C8.32562 89.1265 14.1691 90.4024 24.6705 91.3211C54.614 93.9409 116.326 93.3481 194.599 60.2628C200.345 61.0733 32.7232 -12.7889 61.5651 8.04156Z" fill="white" stroke="#D9D9D9" stroke-width="5"/>
<path d="M182.5 62.5L44 36.5L51.5 23L53.5 7L58.5 0L124 21C124 21 195.5 56 194 57C192.5 58 190 59 189.5 59.5C189 60 185.358 61.3602 182.5 62.5Z" fill="white"/>
</svg>
