<svg width="58" height="58" viewBox="0 0 58 58" fill="none" xmlns="http://www.w3.org/2000/svg">
<path opacity="0.05" d="M42 0H16C7.16344 0 0 7.16344 0 16V42C0 50.8366 7.16344 58 16 58H42C50.8366 58 58 50.8366 58 42V16C58 7.16344 50.8366 0 42 0Z" fill="#333333"/>
<path d="M29.3816 10C26.9979 10.0068 24.7125 10.9507 23.0188 12.628C21.3251 14.3053 20.3589 16.5813 20.3288 18.9648C20.2988 21.3483 21.2073 23.648 22.8581 25.3674C24.509 27.0869 26.7698 28.0881 29.1526 28.1551C29.2921 28.1359 29.4336 28.1359 29.5732 28.1551H29.7057C32.0833 28.0684 34.3318 27.0522 35.9678 25.3248C37.6038 23.5975 38.4966 21.2971 38.4541 18.9184C38.4117 16.5397 37.4373 14.2726 35.7407 12.6048C34.0441 10.937 31.7607 10.0017 29.3816 10Z" fill="#333333"/>
<path d="M39.0927 33.2393C33.7552 29.6806 25.0507 29.6806 19.6746 33.2393C18.5794 33.8713 17.6605 34.7683 17.002 35.8478C16.3436 36.9273 15.9668 38.1549 15.9062 39.418C15.9644 40.6749 16.3384 41.897 16.9936 42.9712C17.6489 44.0454 18.5643 44.9372 19.6554 45.5641C22.564 47.3878 25.9409 48.3249 29.3734 48.2611C32.8059 48.3249 36.1828 47.3878 39.0915 45.5641C40.1846 44.9297 41.1009 44.031 41.7564 42.9504C42.4118 41.8698 42.7855 40.6419 42.843 39.3794C42.7796 38.1244 42.4032 36.9051 41.7482 35.8327C41.0932 34.7603 40.1803 33.8688 39.0927 33.2393Z" fill="#333333"/>
</svg>
