<svg width="58" height="58" viewBox="0 0 58 58" fill="none" xmlns="http://www.w3.org/2000/svg">
<path opacity="0.1" d="M42 0H16C7.16344 0 0 7.16344 0 16V42C0 50.8366 7.16344 58 16 58H42C50.8366 58 58 50.8366 58 42V16C58 7.16344 50.8366 0 42 0Z" fill="#8CC9E9"/>
<path d="M22.4362 9.86719C20.0526 9.87399 17.7672 10.8179 16.0735 12.4952C14.3798 14.1724 13.4136 16.4485 13.3835 18.832C13.3535 21.2155 14.2619 23.5152 15.9128 25.2346C17.5637 26.9541 19.8245 27.9553 22.2073 28.0222C22.3468 28.0031 22.4883 28.0031 22.6279 28.0222H22.7604C25.1379 27.9356 27.3865 26.9193 29.0225 25.192C30.6585 23.4647 31.5513 21.1643 31.5088 18.7856C31.4663 16.4069 30.492 14.1398 28.7954 12.472C27.0988 10.8042 24.8153 9.86889 22.4362 9.86719Z" fill="#8CC9E9"/>
<path d="M32.1473 33.1065C26.8099 29.5478 18.1053 29.5478 12.7293 33.1065C11.6341 33.7385 10.7151 34.6354 10.0567 35.715C9.3983 36.7945 9.02152 38.0221 8.96094 39.2852C9.01907 40.5421 9.39305 41.7642 10.0483 42.8384C10.7036 43.9126 11.619 44.8043 12.7101 45.4312C15.6187 47.255 18.9956 48.1921 22.4281 48.1283C25.8606 48.1921 29.2375 47.255 32.1461 45.4312C33.2393 44.7969 34.1556 43.8982 34.8111 42.8176C35.4665 41.737 35.8402 40.5091 35.8977 39.2466C35.8343 37.9916 35.4579 36.7723 34.8029 35.6999C34.1479 34.6275 33.235 33.736 32.1473 33.1065Z" fill="#8CC9E9"/>
<path d="M44.1177 35.3833C43.945 35.3845 43.7735 35.3512 43.6138 35.2854C43.4541 35.2197 43.3093 35.1227 43.1875 35.0003L41.9356 33.7503C41.679 33.5185 41.3506 33.3816 41.0054 33.3623H39.2363C38.8873 33.3621 38.5526 33.2233 38.3057 32.9766C38.0588 32.7299 37.92 32.3954 37.9195 32.0464V30.2754C37.9003 29.9302 37.7632 29.6017 37.5313 29.3452L36.2813 28.0952C36.1591 27.9731 36.0623 27.828 35.9966 27.6682C35.9309 27.5084 35.8976 27.3371 35.8985 27.1643C35.8975 26.9915 35.9309 26.8202 35.9966 26.6604C36.0623 26.5006 36.159 26.3556 36.2813 26.2334L37.5313 24.9834C37.7632 24.727 37.9003 24.3985 37.9195 24.0533V22.2823C37.92 21.9332 38.0588 21.5988 38.3057 21.3521C38.5526 21.1054 38.8873 20.9666 39.2363 20.9663H41.0054C41.3514 20.9506 41.681 20.8133 41.9356 20.5784L43.2046 19.3284C43.3264 19.206 43.4712 19.109 43.6309 19.0432C43.7906 18.9775 43.9616 18.9442 44.1343 18.9453C44.307 18.9442 44.4785 18.9775 44.6382 19.0432C44.7979 19.109 44.9427 19.206 45.0645 19.3284L46.3164 20.5784C46.573 20.8102 46.9014 20.9471 47.2466 20.9663H49.0176C49.3665 20.9666 49.701 21.1053 49.9478 21.3521C50.1945 21.5988 50.3333 21.9333 50.3335 22.2823V24.0603C50.3531 24.4061 50.4902 24.7349 50.7217 24.9925L51.9717 26.2425C52.0968 26.3639 52.1955 26.5095 52.2622 26.6707C52.329 26.8318 52.362 27.0048 52.3594 27.1792C52.3585 27.3509 52.3227 27.5207 52.2539 27.678C52.1851 27.8353 52.0849 27.977 51.9595 28.0943L50.7095 29.3443C50.4778 29.6009 50.3407 29.9292 50.3213 30.2744V32.0454C50.321 32.3942 50.1826 32.7284 49.9361 32.9751C49.6895 33.2218 49.3551 33.3608 49.0064 33.3614H47.2354C46.8901 33.3806 46.5622 33.5175 46.3057 33.7493L45.0532 34.9993C44.9308 35.1226 44.7853 35.2202 44.6245 35.2862C44.4638 35.3521 44.2915 35.3851 44.1177 35.3833ZM41.6177 26.7722C41.5276 26.7719 41.4382 26.7894 41.355 26.8238C41.2717 26.8581 41.1959 26.9087 41.1323 26.9724C41.0686 27.0363 41.0182 27.1119 40.9839 27.1953C40.9496 27.2787 40.9323 27.3681 40.9326 27.4583C40.9322 27.5485 40.9496 27.638 40.9839 27.7215C41.0182 27.8049 41.0686 27.8806 41.1323 27.9444L42.8032 29.6133C42.867 29.6772 42.943 29.7277 43.0264 29.762C43.1098 29.7963 43.1994 29.8138 43.2896 29.8133C43.4713 29.8132 43.6455 29.7413 43.7744 29.6133L47.1143 26.2732C47.2427 26.1443 47.315 25.9699 47.315 25.7879C47.315 25.6059 47.2427 25.4312 47.1143 25.3023C47.0506 25.2384 46.9751 25.1879 46.8916 25.1536C46.8082 25.1193 46.7187 25.1018 46.6284 25.1023C46.5384 25.1019 46.449 25.1195 46.3657 25.1538C46.2825 25.1882 46.2072 25.2385 46.1436 25.3023L43.2896 28.1563L42.1035 26.9734C42.0401 26.9095 41.9649 26.8587 41.8819 26.824C41.7988 26.7893 41.7097 26.7714 41.6196 26.7713L41.6177 26.7722Z" fill="#8CC9E9"/>
</svg>
