<svg width="58" height="58" viewBox="0 0 58 58" fill="none" xmlns="http://www.w3.org/2000/svg">
<path opacity="0.1" d="M42 0H16C7.16344 0 0 7.16344 0 16V42C0 50.8366 7.16344 58 16 58H42C50.8366 58 58 50.8366 58 42V16C58 7.16344 50.8366 0 42 0Z" fill="#8CE9DB"/>
<path d="M23.5925 9.86719C21.2088 9.87399 18.9234 10.8179 17.2297 12.4952C15.536 14.1724 14.5698 16.4485 14.5398 18.832C14.5097 21.2155 15.4182 23.5152 17.0691 25.2346C18.7199 26.9541 20.9808 27.9553 23.3635 28.0222C23.5031 28.0031 23.6446 28.0031 23.7841 28.0222H23.9167C26.2942 27.9356 28.5428 26.9193 30.1788 25.192C31.8148 23.4647 32.7075 21.1643 32.6651 18.7856C32.6226 16.4069 31.6483 14.1398 29.9516 12.472C28.255 10.8042 25.9716 9.86889 23.5925 9.86719Z" fill="#8CE9DB"/>
<path d="M33.3036 33.1065C27.9661 29.5478 19.2616 29.5478 13.8856 33.1065C12.7904 33.7385 11.8714 34.6354 11.213 35.715C10.5546 36.7945 10.1778 38.0221 10.1172 39.2852C10.1753 40.5421 10.5493 41.7642 11.2046 42.8384C11.8598 43.9126 12.7753 44.8043 13.8663 45.4312C16.775 47.255 20.1518 48.1921 23.5843 48.1283C27.0169 48.1921 30.3937 47.255 33.3024 45.4312C34.3955 44.7969 35.3118 43.8982 35.9673 42.8176C36.6228 41.737 36.9964 40.5091 37.0539 39.2466C36.9905 37.9916 36.6142 36.7723 35.9592 35.6999C35.3041 34.6275 34.3912 33.736 33.3036 33.1065Z" fill="#8CE9DB"/>
<path d="M41.6933 35.0234C41.5531 35.0234 41.4187 34.9675 41.3195 34.8679C41.2204 34.7683 41.1647 34.6332 41.1647 34.4923C41.1647 34.3514 41.2204 34.2163 41.3195 34.1167C41.4187 34.0171 41.5531 33.9612 41.6933 33.9612H48.7448C48.885 33.9612 49.0195 34.0171 49.1186 34.1167C49.2177 34.2163 49.2734 34.3514 49.2734 34.4923C49.2734 34.6332 49.2177 34.7683 49.1186 34.8679C49.0195 34.9675 48.885 35.0234 48.7448 35.0234H41.6933ZM41.8557 32.8813C41.7107 32.882 41.5691 32.8375 41.4503 32.7539C41.3316 32.6702 41.2417 32.5516 41.1929 32.4144L38.2595 24.167C38.2092 24.0242 38.2054 23.869 38.2486 23.7239C38.2919 23.5788 38.38 23.4513 38.5002 23.3598C38.6203 23.2684 38.7663 23.2177 38.9171 23.2151C39.0678 23.2125 39.2155 23.2581 39.3387 23.3454L42.1593 25.3679C42.2464 25.4323 42.3473 25.4753 42.454 25.4937C42.5606 25.512 42.67 25.505 42.7735 25.4734C42.877 25.4418 42.9717 25.3863 43.0502 25.3115C43.1286 25.2366 43.1885 25.1444 43.2253 25.0422L44.5635 21.4824C44.6136 21.3476 44.7035 21.2314 44.8212 21.1494C44.9389 21.0674 45.0787 21.0234 45.2219 21.0234C45.3651 21.0234 45.5049 21.0674 45.6226 21.1494C45.7402 21.2314 45.8302 21.3476 45.8803 21.4824L47.2147 25.0529C47.2535 25.1541 47.3148 25.2452 47.3939 25.319C47.473 25.3929 47.5679 25.4476 47.6713 25.479C47.7747 25.5105 47.8838 25.5177 47.9904 25.5003C48.097 25.4829 48.1983 25.4413 48.2864 25.3786L51.1082 23.3536C51.2298 23.2647 51.3767 23.2176 51.527 23.2192C51.6774 23.2208 51.8232 23.2711 51.9428 23.3626C52.0625 23.454 52.1496 23.5818 52.1913 23.7269C52.233 23.872 52.227 24.0268 52.1743 24.1683L49.2389 32.4175C49.189 32.554 49.0988 32.6719 48.9803 32.7553C48.8618 32.8388 48.7208 32.8838 48.5761 32.8844L41.8557 32.8813ZM42.9274 29.353C42.9284 29.4935 42.9844 29.6281 43.0833 29.7274C43.1823 29.8268 43.3161 29.8831 43.456 29.8841H46.9821C47.1223 29.8841 47.2567 29.8281 47.3559 29.7285C47.455 29.6289 47.5107 29.4938 47.5107 29.353C47.5107 29.2121 47.455 29.077 47.3559 28.9774C47.2567 28.8778 47.1223 28.8218 46.9821 28.8218H43.4567C43.3158 28.8227 43.181 28.8796 43.0818 28.9801C42.9826 29.0806 42.9271 29.2165 42.9274 29.358V29.353Z" fill="#8CE9DB"/>
</svg>
