<svg width="40" height="40" viewBox="0 0 40 40" fill="none" xmlns="http://www.w3.org/2000/svg">
<path d="M1.33203 0V12C1.33203 13.4145 1.89393 14.771 2.89413 15.7712C3.89432 16.7714 5.25088 17.3333 6.66536 17.3333C8.07985 17.3333 9.43641 16.7714 10.4366 15.7712C11.4368 14.771 11.9987 13.4145 11.9987 12V4C11.9987 3.29276 11.7177 2.61448 11.2176 2.11438C10.7176 1.61429 10.0393 1.33333 9.33203 1.33333C8.62479 1.33333 7.94651 1.61429 7.44641 2.11438C6.94632 2.61448 6.66536 3.29276 6.66536 4V13.3333M15.9987 1.33333H33.332C34.0393 1.33333 34.7176 1.61429 35.2176 2.11438C35.7177 2.61448 35.9987 3.29276 35.9987 4V36C35.9987 36.7072 35.7177 37.3855 35.2176 37.8856C34.7176 38.3857 34.0393 38.6667 33.332 38.6667H6.66536C5.95812 38.6667 5.27984 38.3857 4.77975 37.8856C4.27965 37.3855 3.9987 36.7072 3.9987 36V21.3333M29.332 12H18.6654M29.332 20H18.6654M29.332 28H10.6654" stroke="black" stroke-width="1.53"/>
</svg>
