<svg width="22" height="23" viewBox="0 0 22 23" fill="none" xmlns="http://www.w3.org/2000/svg">
<g clip-path="url(#clip0_1_53304)">
<path d="M17.4167 1.91667H16.5V0.958333C16.5 0.704167 16.4034 0.460412 16.2315 0.280689C16.0596 0.100967 15.8264 0 15.5833 0C15.3402 0 15.1071 0.100967 14.9352 0.280689C14.7632 0.460412 14.6667 0.704167 14.6667 0.958333V1.91667H7.33333V0.958333C7.33333 0.704167 7.23676 0.460412 7.06485 0.280689C6.89294 0.100967 6.65978 0 6.41667 0C6.17355 0 5.94039 0.100967 5.76849 0.280689C5.59658 0.460412 5.5 0.704167 5.5 0.958333V1.91667H4.58333C3.3682 1.91819 2.20326 2.42351 1.34403 3.32179C0.484808 4.22008 0.00145554 5.43797 0 6.70833L0 18.2083C0.00145554 19.4787 0.484808 20.6966 1.34403 21.5949C2.20326 22.4932 3.3682 22.9985 4.58333 23H17.4167C18.6318 22.9985 19.7967 22.4932 20.656 21.5949C21.5152 20.6966 21.9985 19.4787 22 18.2083V6.70833C21.9985 5.43797 21.5152 4.22008 20.656 3.32179C19.7967 2.42351 18.6318 1.91819 17.4167 1.91667ZM1.83333 6.70833C1.83333 5.94584 2.12306 5.21457 2.63879 4.6754C3.15451 4.13623 3.85399 3.83333 4.58333 3.83333H17.4167C18.146 3.83333 18.8455 4.13623 19.3612 4.6754C19.8769 5.21457 20.1667 5.94584 20.1667 6.70833V7.66667H1.83333V6.70833ZM17.4167 21.0833H4.58333C3.85399 21.0833 3.15451 20.7804 2.63879 20.2413C2.12306 19.7021 1.83333 18.9708 1.83333 18.2083V9.58333H20.1667V18.2083C20.1667 18.9708 19.8769 19.7021 19.3612 20.2413C18.8455 20.7804 18.146 21.0833 17.4167 21.0833Z" fill="black"/>
<path d="M11 15.8125C11.7594 15.8125 12.375 15.1689 12.375 14.375C12.375 13.5811 11.7594 12.9375 11 12.9375C10.2406 12.9375 9.625 13.5811 9.625 14.375C9.625 15.1689 10.2406 15.8125 11 15.8125Z" fill="black"/>
<path d="M6.41699 15.8125C7.17638 15.8125 7.79199 15.1689 7.79199 14.375C7.79199 13.5811 7.17638 12.9375 6.41699 12.9375C5.6576 12.9375 5.04199 13.5811 5.04199 14.375C5.04199 15.1689 5.6576 15.8125 6.41699 15.8125Z" fill="black"/>
<path d="M15.583 15.8125C16.3424 15.8125 16.958 15.1689 16.958 14.375C16.958 13.5811 16.3424 12.9375 15.583 12.9375C14.8236 12.9375 14.208 13.5811 14.208 14.375C14.208 15.1689 14.8236 15.8125 15.583 15.8125Z" fill="black"/>
</g>
<defs>
<clipPath id="clip0_1_53304">
<rect width="22" height="23" fill="white"/>
</clipPath>
</defs>
</svg>
