<svg width="142" height="142" viewBox="0 0 142 142" fill="none" xmlns="http://www.w3.org/2000/svg">
<circle cx="71" cy="71" r="69.5" fill="#DB3B53" stroke="white" stroke-width="3"/>
<path d="M71.0005 76.9665L53.1026 94.8644C52.2589 95.7081 51.2646 96.1299 50.1196 96.1299C48.9746 96.1299 47.9803 95.7081 47.1366 94.8644C46.2929 94.0207 45.8711 93.0264 45.8711 91.8814C45.8711 90.7364 46.2929 89.7421 47.1366 88.8984L65.0345 71.0005L47.1366 53.1026C46.2929 52.2589 45.8711 51.2646 45.8711 50.1196C45.8711 48.9746 46.2929 47.9803 47.1366 47.1366C47.9803 46.2929 48.9746 45.8711 50.1196 45.8711C51.2646 45.8711 52.2589 46.2929 53.1026 47.1366L71.0005 65.0345L88.8984 47.1366C89.7421 46.2929 90.7364 45.8711 91.8814 45.8711C93.0264 45.8711 94.0207 46.2929 94.8644 47.1366C95.7081 47.9803 96.1299 48.9746 96.1299 50.1196C96.1299 51.2646 95.7081 52.2589 94.8644 53.1026L76.9665 71.0005L94.8644 88.8984C95.7081 89.7421 96.1299 90.7364 96.1299 91.8814C96.1299 93.0264 95.7081 94.0207 94.8644 94.8644C94.0207 95.7081 93.0264 96.1299 91.8814 96.1299C90.7364 96.1299 89.7421 95.7081 88.8984 94.8644L71.0005 76.9665Z" fill="white"/>
</svg>
