<svg width="91" height="100" viewBox="0 0 91 100" fill="none" xmlns="http://www.w3.org/2000/svg">
<path fill-rule="evenodd" clip-rule="evenodd" d="M73.4772 21.0039V75.6509H68.0019V35.5497L49.351 56.9148L26.3894 35.0641V73.9243H20.9141V22.3528L48.9825 49.0633L73.4772 21.0039Z" fill="#8CC9E9"/>
<path fill-rule="evenodd" clip-rule="evenodd" d="M0.109375 -0.046875L85.5245 86.2841V17.3761H90.9999V99.5472L5.58471 13.2163V73.9228H0.109375V-0.046875Z" fill="#8CC9E9"/>
<path d="M90.8905 99.4977H0V81.1523H79.9398L90.8905 99.4977Z" fill="#8CC9E9"/>
<path d="M3.78125 82.9922H5.93314L12.7276 93.7305V82.9922H14.4583V96.2481H12.4163L5.52108 85.5188V96.2481H3.78125V82.9922Z" fill="#333333"/>
<path d="M17.5076 82.9922H27.3147V84.6165H19.284V88.6411H26.7103V90.1751H19.284V94.6689H27.452V96.2481H17.5076V82.9922Z" fill="#333333"/>
<path d="M39.6308 82.9922V84.5713H35.0981V96.2481H33.2484V84.5713H28.7157V82.9922H39.6308Z" fill="#333333"/>
<path d="M41.2607 82.9922H43.8705L47.7347 94.1997L51.5715 82.9922H54.1538V96.2481H52.4231V88.4245C52.4231 88.1538 52.4292 87.7056 52.4414 87.08C52.4536 86.4543 52.4597 85.7835 52.4597 85.0677L48.623 96.2481H46.819L42.9548 85.0677V85.4737C42.9548 85.7986 42.9609 86.2949 42.9731 86.9626C42.9914 87.6244 43.0006 88.1117 43.0006 88.4245V96.2481H41.2607V82.9922Z" fill="#333333"/>
<path d="M57.1023 82.9922H66.9094V84.6165H58.8788V88.6411H66.3051V90.1751H58.8788V94.6689H67.0468V96.2481H57.1023V82.9922Z" fill="#333333"/>
</svg>
