<svg width="15" height="9" viewBox="0 0 15 9" fill="none" xmlns="http://www.w3.org/2000/svg">
<path d="M7.82642 6.44064L13.0554 1.24963C13.2415 1.06473 13.4931 0.960938 13.7554 0.960938C14.0177 0.960937 14.2694 1.06473 14.4554 1.24963C14.5471 1.34038 14.6198 1.4484 14.6694 1.56744C14.7191 1.68647 14.7446 1.81416 14.7446 1.94313C14.7446 2.0721 14.7191 2.1998 14.6694 2.31883C14.6198 2.43787 14.5471 2.54588 14.4554 2.63663L8.52734 8.52164C8.3413 8.70654 8.0897 8.81033 7.82739 8.81033C7.56509 8.81033 7.31349 8.70654 7.12744 8.52164L1.19934 2.63663C1.1077 2.54588 1.035 2.43787 0.985352 2.31883C0.935705 2.1998 0.910156 2.0721 0.910156 1.94313C0.910156 1.81416 0.935705 1.68647 0.985352 1.56744C1.035 1.4484 1.1077 1.34038 1.19934 1.24963C1.38539 1.06473 1.63711 0.960937 1.89941 0.960938C2.16172 0.960938 2.41332 1.06473 2.59937 1.24963L7.82642 6.44064Z" fill="#809FB8"/>
</svg>
