<svg width="100" height="100" viewBox="0 0 100 100" fill="none" xmlns="http://www.w3.org/2000/svg">
<g filter="url(#filter0_d_1_53105)">
<rect x="24" y="18" width="52" height="52" rx="26" fill="#333333"/>
<path d="M60.4937 33.4737C60.3898 33.3842 60.2419 33.3634 60.1165 33.4205L37.4676 43.7572C37.3456 43.8129 37.2671 43.9324 37.2656 44.0644C37.2642 44.1964 37.3401 44.3176 37.4609 44.3758L43.8705 47.4656C43.988 47.5223 44.1282 47.5094 44.2331 47.4324L50.4651 42.8572L45.5727 47.8003C45.503 47.8708 45.4674 47.9674 45.475 48.0654L45.9621 54.2966C45.973 54.4347 46.0672 54.5528 46.2011 54.596C46.2369 54.6075 46.2737 54.6132 46.3101 54.6132C46.4098 54.6132 46.5068 54.5711 46.5743 54.4944L49.9763 50.6221L54.1819 52.5958C54.2732 52.6387 54.3789 52.6405 54.4717 52.6008C54.5644 52.5611 54.635 52.484 54.6653 52.3892L60.5965 33.8342C60.638 33.7046 60.5976 33.5633 60.4937 33.4737Z" fill="white"/>
<mask id="mask0_1_53105" style="mask-type:luminance" maskUnits="userSpaceOnUse" x="37" y="33" width="24" height="22">
<path d="M60.4937 33.4737C60.3898 33.3842 60.2419 33.3634 60.1165 33.4205L37.4676 43.7572C37.3456 43.8129 37.2671 43.9324 37.2656 44.0644C37.2642 44.1964 37.3401 44.3176 37.4609 44.3758L43.8705 47.4656C43.988 47.5223 44.1282 47.5094 44.2331 47.4324L50.4651 42.8572L45.5727 47.8003C45.503 47.8708 45.4674 47.9674 45.475 48.0654L45.9621 54.2966C45.973 54.4347 46.0672 54.5528 46.2011 54.596C46.2369 54.6075 46.2737 54.6132 46.3101 54.6132C46.4098 54.6132 46.5068 54.5711 46.5743 54.4944L49.9763 50.6221L54.1819 52.5958C54.2732 52.6387 54.3789 52.6405 54.4717 52.6008C54.5644 52.5611 54.635 52.484 54.6653 52.3892L60.5965 33.8342C60.638 33.7046 60.5976 33.5633 60.4937 33.4737Z" fill="white"/>
</mask>
<g mask="url(#mask0_1_53105)">
</g>
</g>
<defs>
<filter id="filter0_d_1_53105" x="0" y="0" width="100" height="100" filterUnits="userSpaceOnUse" color-interpolation-filters="sRGB">
<feFlood flood-opacity="0" result="BackgroundImageFix"/>
<feColorMatrix in="SourceAlpha" type="matrix" values="0 0 0 0 0 0 0 0 0 0 0 0 0 0 0 0 0 0 127 0" result="hardAlpha"/>
<feOffset dy="6"/>
<feGaussianBlur stdDeviation="12"/>
<feColorMatrix type="matrix" values="0 0 0 0 0 0 0 0 0 0 0 0 0 0 0 0 0 0 0.18 0"/>
<feBlend mode="normal" in2="BackgroundImageFix" result="effect1_dropShadow_1_53105"/>
<feBlend mode="normal" in="SourceGraphic" in2="effect1_dropShadow_1_53105" result="shape"/>
</filter>
</defs>
</svg>
