<svg width="58" height="58" viewBox="0 0 58 58" fill="none" xmlns="http://www.w3.org/2000/svg">
<path opacity="0.1" d="M42 0H16C7.16344 0 0 7.16344 0 16V42C0 50.8366 7.16344 58 16 58H42C50.8366 58 58 50.8366 58 42V16C58 7.16344 50.8366 0 42 0Z" fill="#8CE9DB"/>
<path d="M22.3425 10.082C19.9588 10.0888 17.6734 11.0328 15.9797 12.71C14.286 14.3873 13.3198 16.6634 13.2898 19.0468C13.2597 21.4303 14.1682 23.73 15.8191 25.4495C17.4699 27.1689 19.7308 28.1702 22.1135 28.2371C22.2531 28.2179 22.3946 28.2179 22.5341 28.2371H22.6667C25.0442 28.1504 27.2928 27.1342 28.9288 25.4069C30.5648 23.6796 31.4575 21.3792 31.4151 19.0005C31.3726 16.6217 30.3983 14.3547 28.7016 12.6869C27.005 11.0191 24.7216 10.0837 22.3425 10.082Z" fill="#8CE9DB"/>
<path d="M32.0575 33.3223C26.7201 29.7636 18.0155 29.7636 12.6395 33.3223C11.5443 33.9544 10.6253 34.8513 9.96688 35.9308C9.30846 37.0103 8.93168 38.2379 8.87109 39.501C8.92922 40.7579 9.3032 41.98 9.95848 43.0542C10.6137 44.1284 11.5292 45.0202 12.6202 45.6471C15.5289 47.4708 18.9057 48.4079 22.3383 48.3441C25.7708 48.4079 29.1476 47.4708 32.0563 45.6471C33.1494 45.0127 34.0658 44.114 34.7212 43.0334C35.3767 41.9528 35.7503 40.725 35.8078 39.4624C35.7444 38.2074 35.3681 36.9881 34.7131 35.9157C34.058 34.8433 33.1451 33.9518 32.0575 33.3223Z" fill="#8CE9DB"/>
<path d="M46.9031 31.4875L42.3076 36.0846L37.7121 31.4875C36.8029 30.5785 36.1836 29.4204 35.9327 28.1594C35.6817 26.8985 35.8103 25.5915 36.3022 24.4036C36.7941 23.2158 37.6272 22.2005 38.6962 21.4862C39.7652 20.7719 41.022 20.3906 42.3076 20.3906C43.5933 20.3906 44.8501 20.7719 45.919 21.4862C46.988 22.2005 47.8211 23.2158 48.313 24.4036C48.8049 25.5915 48.9335 26.8985 48.6826 28.1594C48.4316 29.4204 47.8124 30.5785 46.9031 31.4875ZM42.3076 25.267C41.8766 25.267 41.4633 25.4382 41.1586 25.743C40.8538 26.0477 40.6826 26.461 40.6826 26.892C40.6826 27.323 40.8538 27.7363 41.1586 28.0411C41.4633 28.3458 41.8766 28.517 42.3076 28.517C42.7386 28.517 43.1519 28.3458 43.4567 28.0411C43.7614 27.7363 43.9326 27.323 43.9326 26.892C43.9326 26.461 43.7614 26.0477 43.4567 25.743C43.1519 25.4382 42.7386 25.267 42.3076 25.267Z" fill="#8CE9DB"/>
</svg>
