<svg width="58" height="58" viewBox="0 0 58 58" fill="none" xmlns="http://www.w3.org/2000/svg">
<path opacity="0.1" d="M42 0H16C7.16344 0 0 7.16344 0 16V42C0 50.8366 7.16344 58 16 58H42C50.8366 58 58 50.8366 58 42V16C58 7.16344 50.8366 0 42 0Z" fill="#FF5D4D"/>
<path d="M20.5398 10.082C18.1561 10.0888 15.8707 11.0328 14.177 12.71C12.4833 14.3873 11.5171 16.6634 11.4871 19.0468C11.457 21.4303 12.3655 23.73 14.0163 25.4495C15.6672 27.1689 17.9281 28.1702 20.3108 28.2371C20.4503 28.2179 20.5918 28.2179 20.7314 28.2371H20.8639C23.2415 28.1504 25.49 27.1342 27.126 25.4069C28.762 23.6796 29.6548 21.3792 29.6123 19.0005C29.5699 16.6217 28.5955 14.3547 26.8989 12.6869C25.2023 11.0191 22.9189 10.0837 20.5398 10.082Z" fill="#DB3B53"/>
<path d="M30.2548 33.3223C24.9173 29.7636 16.2128 29.7636 10.8368 33.3223C9.74154 33.9544 8.82257 34.8513 8.16415 35.9308C7.50573 37.0103 7.12894 38.2379 7.06836 39.501C7.12649 40.7579 7.50047 41.98 8.15574 43.0542C8.81102 44.1284 9.72645 45.0202 10.8175 45.6471C13.7262 47.4708 17.103 48.4079 20.5355 48.3441C23.9681 48.4079 27.3449 47.4708 30.2536 45.6471C31.3467 45.0127 32.263 44.114 32.9185 43.0334C33.574 41.9528 33.9476 40.725 34.0051 39.4624C33.9417 38.2074 33.5654 36.9881 32.9103 35.9157C32.2553 34.8433 31.3424 33.9518 30.2548 33.3223Z" fill="#DB3B53"/>
<path d="M42.2241 36.8286C42.0515 36.8298 41.8799 36.7965 41.7202 36.7307C41.5606 36.665 41.4158 36.568 41.294 36.4456L40.042 35.1956C39.7855 34.9638 39.4571 34.8269 39.1118 34.8076H37.3428C36.9938 34.8074 36.659 34.6686 36.4121 34.4219C36.1652 34.1752 36.0264 33.8408 36.0259 33.4917V31.7207C36.0068 31.3755 35.8697 31.047 35.6377 30.7906L34.3877 29.5406C34.2655 29.4184 34.1688 29.2734 34.103 29.1136C34.0373 28.9537 34.004 28.7824 34.0049 28.6096C34.004 28.4368 34.0373 28.2656 34.103 28.1057C34.1688 27.9459 34.2655 27.8009 34.3877 27.6787L35.6377 26.4287C35.8697 26.1723 36.0068 25.8438 36.0259 25.4986V23.7276C36.0264 23.3785 36.1652 23.0441 36.4121 22.7974C36.659 22.5507 36.9938 22.4119 37.3428 22.4116H39.1118C39.4579 22.3959 39.7874 22.2586 40.042 22.0237L41.3111 20.7737C41.4329 20.6513 41.5776 20.5543 41.7373 20.4886C41.897 20.4228 42.0681 20.3895 42.2407 20.3907C42.4134 20.3895 42.585 20.4228 42.7446 20.4886C42.9043 20.5543 43.0491 20.6513 43.1709 20.7737L44.4229 22.0237C44.6794 22.2555 45.0078 22.3924 45.353 22.4116H47.124C47.473 22.4119 47.8075 22.5507 48.0542 22.7974C48.301 23.0441 48.4397 23.3786 48.44 23.7276V25.5056C48.4596 25.8514 48.5966 26.1803 48.8281 26.4378L50.0781 27.6878C50.2033 27.8092 50.3019 27.9549 50.3687 28.116C50.4354 28.2771 50.4685 28.4502 50.4658 28.6245C50.4649 28.7962 50.4291 28.966 50.3604 29.1233C50.2916 29.2806 50.1914 29.4223 50.0659 29.5396L48.8159 30.7896C48.5842 31.0462 48.4471 31.3745 48.4278 31.7198V33.4908C48.4275 33.8395 48.289 34.1737 48.0425 34.4204C47.796 34.6671 47.4616 34.8061 47.1128 34.8067H45.3418C44.9966 34.8259 44.6687 34.9628 44.4121 35.1946L43.1597 36.4446C43.0373 36.5679 42.8917 36.6655 42.731 36.7315C42.5702 36.7974 42.3979 36.8304 42.2241 36.8286ZM39.7241 28.2176C39.6341 28.2172 39.5447 28.2347 39.4614 28.2691C39.3782 28.3034 39.3024 28.354 39.2388 28.4178C39.1751 28.4816 39.1247 28.5572 39.0904 28.6407C39.056 28.7241 39.0387 28.8134 39.0391 28.9036C39.0387 28.9938 39.056 29.0834 39.0904 29.1668C39.1247 29.2502 39.175 29.3259 39.2388 29.3897L40.9097 31.0586C40.9734 31.1225 41.0494 31.173 41.1328 31.2073C41.2163 31.2416 41.3058 31.2591 41.396 31.2586C41.5777 31.2585 41.7519 31.1866 41.8809 31.0586L45.2207 27.7185C45.3491 27.5896 45.4214 27.4152 45.4214 27.2332C45.4214 27.0512 45.3491 26.8765 45.2207 26.7476C45.157 26.6837 45.0815 26.6332 44.9981 26.5989C44.9146 26.5646 44.8251 26.5471 44.7349 26.5476C44.6448 26.5472 44.5554 26.5648 44.4722 26.5991C44.3889 26.6335 44.3136 26.6838 44.25 26.7476L41.396 29.6016L40.21 28.4187C40.1466 28.3548 40.0714 28.304 39.9883 28.2693C39.9052 28.2346 39.8161 28.2167 39.7261 28.2166L39.7241 28.2176Z" fill="#DB3B53"/>
</svg>
